<svg width="40" height="40" viewBox="0 0 28 28" fill="none" xmlns="http://www.w3.org/2000/svg">
<g clip-path="url(#clip0_1_2489)">
<circle cx="14" cy="14" r="14" fill="white"/>
<path d="M9.85714 13.7147C11.9874 13.7147 13.7143 11.9877 13.7143 9.85735C13.7143 7.727 11.9874 6 9.85714 6C7.7269 6 6 7.727 6 9.85735C6 11.9877 7.7269 13.7147 9.85714 13.7147Z" fill="#FF8D3A"/>
<path d="M18.143 13.7147C20.2732 13.7147 22.0001 11.9877 22.0001 9.85735C22.0001 7.727 20.2732 6 18.143 6C16.0127 6 14.2858 7.727 14.2858 9.85735C14.2858 11.9877 16.0127 13.7147 18.143 13.7147Z" fill="#B2F260"/>
<path d="M9.85714 22C11.9874 22 13.7143 20.273 13.7143 18.1426C13.7143 16.0123 11.9874 14.2853 9.85714 14.2853C7.7269 14.2853 6 16.0123 6 18.1426C6 20.273 7.7269 22 9.85714 22Z" fill="#4FE5C1"/>
<path d="M16.6705 19.2961C16.7452 19.4881 16.8453 19.6691 16.9681 19.8343C17.0973 19.7282 17.2501 18.6558 17.297 18.2866C17.4811 16.9981 17.6495 15.7843 18.5854 15.7843C19.58 15.7843 19.7601 16.9627 19.8659 17.8584C19.8979 18.1427 19.9476 18.4248 20.0147 18.703C20.0382 18.6519 20.0695 18.593 20.1008 18.5183C20.2196 18.1428 20.456 17.8157 20.7749 17.5857C21.0937 17.3557 21.4781 17.235 21.8708 17.2416C21.6589 16.3696 21.1516 15.5985 20.4358 15.06C19.7199 14.5216 18.8398 14.2493 17.946 14.2896C17.0521 14.33 16.2 14.6805 15.5353 15.2813C14.8705 15.8821 14.4344 16.6958 14.3014 17.5834C15.8403 17.4341 16.3572 18.5773 16.6705 19.2961Z" fill="#333333"/>
<path d="M20.9232 18.8719C20.7705 19.2097 20.5316 19.7125 19.9403 19.685C19.2041 19.6497 19.0827 18.7501 18.9731 17.9605C18.9183 17.5677 18.7969 16.6642 18.5815 16.6642C18.5149 16.7113 18.3739 17.057 18.1899 18.3926C18.0333 19.5122 17.8962 20.4785 17.2383 20.675C17.142 20.7053 17.0417 20.7212 16.9407 20.7221C16.3377 20.7221 16.0675 20.1289 15.8521 19.6497C15.5388 18.9544 15.2608 18.3494 14.2858 18.4712C14.3751 19.464 14.8421 20.3842 15.59 21.0406C16.3378 21.6971 17.3089 22.0394 18.3017 21.9964C19.2945 21.9534 20.2326 21.5285 20.9213 20.8099C21.61 20.0913 21.9963 19.1341 22.0001 18.1373V18.1177C21.2756 18.0902 21.1268 18.4201 20.9232 18.8719Z" fill="#333333"/>
</g>
<defs>
<clipPath id="clip0_1_2489">
<rect width="28" height="28" rx="14" fill="white"/>
</clipPath>
</defs>
</svg>
