<svg width="28" height="28" viewBox="0 0 28 28" fill="none" xmlns="http://www.w3.org/2000/svg">
<ellipse cx="14.0007" cy="14" rx="11.6667" ry="11.6667" fill="#B7B9B4"/>
<mask id="path-3-outside-1_106_4288" maskUnits="userSpaceOnUse" x="8.47656" y="7.14767" width="12" height="13" fill="black">
<rect fill="white" x="8.47656" y="7.14767" width="12" height="13"/>
<path fill-rule="evenodd" clip-rule="evenodd" d="M17.7366 13.2708L14.5977 9.44782L15.3491 8.83088L19.4766 13.8579L15.6256 19.1477L14.8396 18.5755L17.9936 14.2431L9.14263 14.2431L9.14263 13.2708L17.7366 13.2708Z"/>
</mask>
<path fill-rule="evenodd" clip-rule="evenodd" d="M17.7366 13.2708L14.5977 9.44782L15.3491 8.83088L19.4766 13.8579L15.6256 19.1477L14.8396 18.5755L17.9936 14.2431L9.14263 14.2431L9.14263 13.2708L17.7366 13.2708Z" fill="white"/>
<path d="M17.7366 13.2708L17.7366 13.7708L18.7941 13.7708L18.123 12.9536L17.7366 13.2708ZM14.5977 9.44782L14.2804 9.06138L13.894 9.37867L14.2112 9.7651L14.5977 9.44782ZM15.3491 8.83088L15.7355 8.5136L15.4182 8.12716L15.0318 8.44444L15.3491 8.83088ZM19.4766 13.8579L19.8808 14.1522L20.1084 13.8396L19.863 13.5407L19.4766 13.8579ZM15.6256 19.1477L15.3314 19.5519L15.7356 19.8462L16.0299 19.442L15.6256 19.1477ZM14.8396 18.5755L14.4354 18.2812L14.1411 18.6854L14.5454 18.9797L14.8396 18.5755ZM17.9936 14.2431L18.3979 14.5373L18.9761 13.7431L17.9936 13.7431L17.9936 14.2431ZM9.14263 14.2431L8.64263 14.2431L8.64263 14.7431L9.14263 14.7431L9.14263 14.2431ZM9.14263 13.2708L9.14263 12.7708L8.64263 12.7708L8.64263 13.2708L9.14263 13.2708ZM18.123 12.9536L14.9841 9.13053L14.2112 9.7651L17.3502 13.5881L18.123 12.9536ZM14.915 9.83425L15.6664 9.21731L15.0318 8.44444L14.2804 9.06138L14.915 9.83425ZM14.9626 9.14816L19.0901 14.1752L19.863 13.5407L15.7355 8.5136L14.9626 9.14816ZM19.0723 13.5637L15.2214 18.8534L16.0299 19.442L19.8808 14.1522L19.0723 13.5637ZM15.9199 18.7434L15.1339 18.1712L14.5454 18.9797L15.3314 19.5519L15.9199 18.7434ZM15.2439 18.8697L18.3979 14.5373L17.5894 13.9488L14.4354 18.2812L15.2439 18.8697ZM17.9936 13.7431L9.14263 13.7431L9.14263 14.7431L17.9936 14.7431L17.9936 13.7431ZM9.64263 14.2431L9.64263 13.2708L8.64263 13.2708L8.64263 14.2431L9.64263 14.2431ZM9.14263 13.7708L17.7366 13.7708L17.7366 12.7708L9.14263 12.7708L9.14263 13.7708Z" fill="white" mask="url(#path-3-outside-1_106_4288)"/>
</svg>
