<svg width="18" height="6" viewBox="0 0 18 6" fill="none" xmlns="http://www.w3.org/2000/svg">
<path d="M0.185059 5.94944L2.54323 0.0505616H4.20131L6.54106 5.94944H5.05799L4.56057 4.66011H2.11028L1.61286 5.94944H0.185059ZM2.47875 3.64045H4.18289L3.32621 1.39888L2.47875 3.64045Z" fill="#333431"/>
<path d="M7.99513 4.02809C8.01355 4.32303 8.14251 4.55899 8.38201 4.73596C8.62151 4.91292 8.93471 4.99719 9.33081 4.99719C9.65321 4.99719 9.92035 4.9382 10.123 4.8118C10.3257 4.68539 10.4362 4.50843 10.4362 4.2809C10.4362 4.12921 10.3717 4.00281 10.2612 3.91011C10.1506 3.81742 9.98483 3.74157 9.78218 3.69101C9.57952 3.64045 9.25711 3.57303 8.83338 3.48876C8.40965 3.42135 8.0504 3.32865 7.76484 3.21067C7.47006 3.0927 7.23977 2.92416 7.05554 2.69663C6.87131 2.4691 6.78841 2.16573 6.78841 1.78652C6.78841 1.44944 6.88973 1.13764 7.09239 0.867977C7.29504 0.598315 7.5806 0.38764 7.94907 0.235955C8.31753 0.0842694 8.73205 0 9.19263 0C9.66243 0 10.0862 0.0842695 10.4638 0.244382C10.8415 0.404494 11.1363 0.623595 11.3574 0.901685C11.5784 1.1882 11.689 1.5 11.6982 1.85393H10.3441C10.3072 1.60112 10.1967 1.39888 9.99404 1.24719C9.79139 1.09551 9.52425 1.01124 9.19263 1.01124C8.87944 1.01124 8.63994 1.07022 8.45571 1.1882C8.27147 1.30618 8.17936 1.47472 8.17936 1.69382C8.17936 1.85393 8.23463 1.98034 8.34517 2.06461C8.45571 2.14888 8.6123 2.22472 8.81496 2.27528C9.01761 2.32584 9.33081 2.39326 9.75454 2.46067C10.1783 2.53652 10.5467 2.62921 10.8415 2.73876C11.1363 2.84831 11.3666 3.01685 11.5508 3.23595C11.735 3.45506 11.8271 3.75 11.8271 4.12079C11.8271 4.48315 11.7166 4.80337 11.5047 5.08989C11.2837 5.3764 10.9889 5.59551 10.602 5.75562C10.2151 5.92416 9.79139 6 9.31238 6C8.79653 6 8.33595 5.91573 7.93064 5.74719C7.52533 5.57865 7.21214 5.33427 6.99106 5.0309C6.76077 4.72753 6.64102 4.39045 6.64102 4.01124L7.99513 4.02809Z" fill="#333431"/>
<path d="M15.2815 0.0505616C15.7421 0.0505616 16.1566 0.134831 16.5159 0.294944C16.8751 0.455056 17.1515 0.682585 17.3541 0.977528C17.5476 1.2809 17.6489 1.6264 17.6489 2.01405C17.6489 2.39326 17.5476 2.73034 17.3541 3.01685C17.1515 3.30337 16.8843 3.52247 16.5435 3.67416L17.8147 5.94944H16.2856L15.2078 3.9691H14.0379V5.94944H12.6562V0.0505616H15.2815ZM14.0379 2.91573H15.171C15.4934 2.91573 15.7513 2.83989 15.9447 2.67135C16.1382 2.51124 16.2395 2.29213 16.2395 2.01405C16.2395 1.73596 16.1382 1.51685 15.9447 1.34831C15.7513 1.1882 15.4934 1.10393 15.171 1.10393H14.0379V2.91573Z" fill="#333431"/>
</svg>
