<svg width="28" height="28" viewBox="0 0 29 28" fill="none" xmlns="http://www.w3.org/2000/svg">
    <g clip-path="url(#clip0_1_2611)">
    <path d="M7.25 13.5007C10.9779 13.5007 14 10.4785 14 6.75037C14 3.02224 10.9779 0 7.25 0C3.52208 0 0.5 3.02224 0.5 6.75037C0.5 10.4785 3.52208 13.5007 7.25 13.5007Z" fill="#FF8D3A"/>
    <path d="M21.75 13.5007C25.4779 13.5007 28.5 10.4785 28.5 6.75037C28.5 3.02224 25.4779 0 21.75 0C18.0221 0 15 3.02224 15 6.75037C15 10.4785 18.0221 13.5007 21.75 13.5007Z" fill="#B2F260"/>
    <path d="M7.25 28C10.9779 28 14 24.9778 14 21.2496C14 17.5215 10.9779 14.4993 7.25 14.4993C3.52208 14.4993 0.5 17.5215 0.5 21.2496C0.5 24.9778 3.52208 28 7.25 28Z" fill="#4FE5C1"/>
    <path d="M19.1732 23.2682C19.304 23.6041 19.4791 23.9209 19.694 24.21C19.9201 24.0244 20.1874 22.1477 20.2696 21.5015C20.5917 19.2467 20.8864 17.1225 22.5242 17.1225C24.2648 17.1225 24.58 19.1848 24.765 20.7522C24.821 21.2498 24.908 21.7434 25.0254 22.2302C25.0666 22.1408 25.1214 22.0377 25.1762 21.9071C25.3841 21.2499 25.7978 20.6775 26.3558 20.275C26.9138 19.8725 27.5865 19.6613 28.2737 19.6729C27.9028 18.1468 27.0152 16.7973 25.7624 15.8551C24.5096 14.9128 22.9695 14.4362 21.4053 14.5069C19.841 14.5775 18.3498 15.1909 17.1865 16.2423C16.0231 17.2936 15.2599 18.7176 15.0272 20.271C17.7204 20.0097 18.6249 22.0102 19.1732 23.2682Z" fill="#333333"/>
    <path d="M26.6155 22.5258C26.3482 23.117 25.9302 23.9969 24.8954 23.9488C23.6071 23.8869 23.3947 22.3127 23.2028 20.9309C23.1069 20.2435 22.8944 18.6624 22.5175 18.6624C22.401 18.7448 22.1543 19.3498 21.8322 21.6871C21.5581 23.6463 21.3183 25.3375 20.167 25.6812C19.9984 25.7343 19.8229 25.7621 19.6462 25.7637C18.5909 25.7637 18.118 24.7256 17.7411 23.8869C17.1929 22.6702 16.7063 21.6115 15 21.8246C15.1563 23.562 15.9736 25.1723 17.2823 26.3211C18.591 27.4699 20.2905 28.0689 22.0279 27.9937C23.7653 27.9185 25.407 27.1749 26.6122 25.9173C27.8174 24.6597 28.4935 22.9848 28.5 21.2403V21.2059C27.2322 21.1578 26.9718 21.7352 26.6155 22.5258Z" fill="#333333"/>
    </g>
    <defs>
    <clipPath id="clip0_1_2611">
    <rect width="28" height="28" fill="white" transform="translate(0.5)"/>
    </clipPath>
    </defs>
</svg>
