<svg width="20" height="20" viewBox="0 0 20 20" fill="none" xmlns="http://www.w3.org/2000/svg">
<path d="M18.7833 5.34999C18.6843 4.9545 18.4827 4.59214 18.1989 4.2995C17.915 4.00686 17.559 3.79432 17.1667 3.68333C15.7333 3.33333 10 3.33333 10 3.33333C10 3.33333 4.26667 3.33333 2.83333 3.71666C2.44104 3.82765 2.08498 4.0402 1.80112 4.33283C1.51726 4.62547 1.31566 4.98784 1.21666 5.38333C0.954344 6.83796 0.826028 8.31359 0.833332 9.79166C0.823981 11.2809 0.952305 12.7677 1.21666 14.2333C1.3258 14.6165 1.53192 14.9651 1.81512 15.2454C2.09832 15.5257 2.44902 15.7282 2.83333 15.8333C4.26667 16.2167 10 16.2167 10 16.2167C10 16.2167 15.7333 16.2167 17.1667 15.8333C17.559 15.7223 17.915 15.5098 18.1989 15.2172C18.4827 14.9245 18.6843 14.5622 18.7833 14.1667C19.0436 12.723 19.1719 11.2586 19.1667 9.79166C19.176 8.30246 19.0477 6.81558 18.7833 5.34999Z" fill="#F44336"/>
<path d="M8.125 12.5167L12.9167 9.79167L8.125 7.06667V12.5167Z" fill="white"/>
</svg>
