<svg width="308" height="74" viewBox="0 0 308 74" fill="none" xmlns="http://www.w3.org/2000/svg">
<rect x="2" y="2" width="304" height="70" rx="6" fill="white" stroke="#909090" stroke-width="4"/>
<path d="M76.2393 23.2493H80.1057L89.1967 45.4545H89.5102L98.6013 23.2493H102.468V50H99.4373V29.6757H99.176L90.8164 50H87.8905L79.5309 29.6757H79.2697V50H76.2393V23.2493ZM114.449 50.4702C113.177 50.4702 112.023 50.2308 110.987 49.7518C109.951 49.2642 109.128 48.5632 108.519 47.6489C107.909 46.7258 107.604 45.6112 107.604 44.305C107.604 43.1556 107.831 42.2238 108.283 41.5098C108.736 40.787 109.341 40.221 110.099 39.8117C110.857 39.4025 111.693 39.0977 112.607 38.8974C113.53 38.6884 114.457 38.523 115.389 38.401C116.608 38.2443 117.597 38.1267 118.354 38.0484C119.12 37.9613 119.678 37.8176 120.026 37.6173C120.383 37.4171 120.562 37.0687 120.562 36.5724V36.4679C120.562 35.1791 120.209 34.1777 119.504 33.4637C118.807 32.7496 117.749 32.3926 116.33 32.3926C114.858 32.3926 113.704 32.7148 112.868 33.3592C112.032 34.0035 111.444 34.6915 111.105 35.4229L108.179 34.378C108.701 33.1589 109.398 32.2097 110.269 31.5305C111.148 30.8426 112.106 30.3636 113.142 30.0937C114.187 29.815 115.215 29.6757 116.225 29.6757C116.869 29.6757 117.61 29.7541 118.446 29.9108C119.29 30.0589 120.104 30.368 120.888 30.8382C121.681 31.3084 122.338 32.0181 122.86 32.9673C123.383 33.9165 123.644 35.1878 123.644 36.7814V50H120.562V47.2831H120.405C120.196 47.7185 119.848 48.1844 119.36 48.6807C118.872 49.1771 118.224 49.5994 117.414 49.9478C116.604 50.2961 115.615 50.4702 114.449 50.4702ZM114.919 47.7011C116.138 47.7011 117.166 47.4616 118.001 46.9827C118.846 46.5038 119.482 45.8855 119.908 45.1279C120.344 44.3703 120.562 43.5736 120.562 42.7376V39.9162C120.431 40.073 120.144 40.2166 119.7 40.3473C119.264 40.4692 118.759 40.578 118.184 40.6738C117.618 40.7609 117.065 40.8393 116.525 40.9089C115.994 40.9699 115.563 41.0221 115.232 41.0657C114.431 41.1702 113.682 41.34 112.986 41.5751C112.298 41.8015 111.74 42.1455 111.314 42.607C110.896 43.0598 110.687 43.678 110.687 44.4618C110.687 45.5328 111.083 46.3427 111.875 46.8913C112.677 47.4312 113.691 47.7011 114.919 47.7011ZM129.271 50V29.9369H132.249V32.9673H132.458C132.823 31.9746 133.485 31.1691 134.443 30.5509C135.401 29.9326 136.481 29.6235 137.682 29.6235C137.909 29.6235 138.192 29.6278 138.531 29.6365C138.871 29.6452 139.128 29.6583 139.302 29.6757V32.8106C139.198 32.7844 138.958 32.7452 138.584 32.693C138.218 32.632 137.83 32.6016 137.421 32.6016C136.446 32.6016 135.575 32.8062 134.809 33.2155C134.051 33.616 133.45 34.1733 133.006 34.8874C132.571 35.5927 132.353 36.3982 132.353 37.3038V50H129.271ZM150.757 50.418C148.824 50.418 147.157 49.9913 145.755 49.1379C144.361 48.2758 143.286 47.0741 142.528 45.5328C141.78 43.9828 141.405 42.1803 141.405 40.1252C141.405 38.0701 141.78 36.2589 142.528 34.6915C143.286 33.1153 144.34 31.8875 145.689 31.008C147.048 30.1198 148.633 29.6757 150.444 29.6757C151.489 29.6757 152.521 29.8499 153.54 30.1982C154.558 30.5465 155.486 31.1125 156.322 31.8962C157.158 32.6712 157.824 33.6988 158.32 34.9788C158.817 36.2589 159.065 37.835 159.065 39.7072V41.0134H143.599V38.3488H155.93C155.93 37.2168 155.704 36.2066 155.251 35.3184C154.807 34.4302 154.171 33.7292 153.344 33.2155C152.525 32.7017 151.559 32.4448 150.444 32.4448C149.216 32.4448 148.154 32.7496 147.257 33.3592C146.369 33.96 145.685 34.7437 145.206 35.7103C144.727 36.6769 144.488 37.7131 144.488 38.819V40.5954C144.488 42.1106 144.749 43.395 145.271 44.4487C145.803 45.4936 146.538 46.2904 147.479 46.839C148.419 47.3789 149.512 47.6489 150.757 47.6489C151.567 47.6489 152.299 47.5357 152.952 47.3093C153.614 47.0741 154.184 46.7258 154.663 46.2643C155.142 45.7941 155.512 45.2106 155.773 44.514L158.751 45.35C158.438 46.3601 157.911 47.2483 157.171 48.0146C156.431 48.7722 155.516 49.3643 154.428 49.791C153.339 50.209 152.116 50.418 150.757 50.418ZM166.837 37.9308V50H163.754V29.9369H166.732V33.0718H166.993C167.464 32.053 168.178 31.2344 169.135 30.6162C170.093 29.9892 171.33 29.6757 172.845 29.6757C174.203 29.6757 175.392 29.9544 176.411 30.5117C177.43 31.0603 178.222 31.8962 178.788 33.0195C179.354 34.1342 179.637 35.5448 179.637 37.2516V50H176.555V37.4606C176.555 35.8845 176.145 34.6566 175.327 33.7771C174.508 32.8889 173.385 32.4448 171.957 32.4448C170.973 32.4448 170.093 32.6582 169.318 33.0849C168.552 33.5115 167.947 34.1342 167.503 34.9527C167.059 35.7713 166.837 36.764 166.837 37.9308ZM193.369 57.9416C191.879 57.9416 190.599 57.7501 189.528 57.3669C188.457 56.9925 187.565 56.4961 186.851 55.8778C186.145 55.2683 185.584 54.6152 185.166 53.9186L187.621 52.1944C187.9 52.5601 188.253 52.9781 188.679 53.4483C189.106 53.9273 189.689 54.3409 190.43 54.6892C191.179 55.0462 192.158 55.2248 193.369 55.2248C194.988 55.2248 196.325 54.8329 197.379 54.0492C198.432 53.2655 198.959 52.0377 198.959 50.3657V46.2904H198.698C198.471 46.6562 198.149 47.109 197.731 47.6489C197.322 48.18 196.73 48.6546 195.955 49.0726C195.188 49.4819 194.152 49.6865 192.846 49.6865C191.226 49.6865 189.772 49.3034 188.483 48.5371C187.203 47.7708 186.189 46.6562 185.44 45.1932C184.7 43.7303 184.33 41.9539 184.33 39.864C184.33 37.8089 184.691 36.0194 185.414 34.4955C186.137 32.9629 187.142 31.7787 188.431 30.9427C189.72 30.098 191.209 29.6757 192.898 29.6757C194.205 29.6757 195.241 29.8934 196.007 30.3288C196.782 30.7555 197.374 31.2431 197.783 31.7917C198.201 32.3316 198.524 32.7757 198.75 33.124H199.064V29.9369H202.042V50.5747C202.042 52.2989 201.65 53.7009 200.866 54.7807C200.091 55.8691 199.046 56.6659 197.731 57.171C196.425 57.6847 194.971 57.9416 193.369 57.9416ZM193.264 46.9174C194.501 46.9174 195.546 46.6344 196.399 46.0684C197.252 45.5024 197.901 44.6882 198.345 43.6258C198.789 42.5634 199.011 41.2921 199.011 39.8117C199.011 38.3662 198.794 37.0905 198.358 35.9846C197.923 34.8787 197.278 34.0123 196.425 33.3853C195.572 32.7583 194.518 32.4448 193.264 32.4448C191.958 32.4448 190.869 32.7757 189.999 33.4375C189.136 34.0993 188.488 34.9875 188.052 36.1022C187.626 37.2168 187.412 38.4533 187.412 39.8117C187.412 41.205 187.63 42.4372 188.065 43.5082C188.51 44.5706 189.163 45.4066 190.025 46.0161C190.895 46.617 191.975 46.9174 193.264 46.9174ZM215.835 50.418C214.024 50.418 212.435 49.9869 211.067 49.1249C209.709 48.2628 208.647 47.0567 207.88 45.5067C207.123 43.9567 206.744 42.1455 206.744 40.073C206.744 37.9831 207.123 36.1588 207.88 34.6C208.647 33.0413 209.709 31.8309 211.067 30.9688C212.435 30.1067 214.024 29.6757 215.835 29.6757C217.646 29.6757 219.231 30.1067 220.59 30.9688C221.957 31.8309 223.019 33.0413 223.777 34.6C224.543 36.1588 224.926 37.9831 224.926 40.073C224.926 42.1455 224.543 43.9567 223.777 45.5067C223.019 47.0567 221.957 48.2628 220.59 49.1249C219.231 49.9869 217.646 50.418 215.835 50.418ZM215.835 47.6489C217.211 47.6489 218.343 47.2962 219.231 46.5908C220.119 45.8855 220.777 44.9581 221.203 43.8087C221.63 42.6592 221.843 41.414 221.843 40.073C221.843 38.7319 221.63 37.4824 221.203 36.3242C220.777 35.1661 220.119 34.23 219.231 33.5159C218.343 32.8019 217.211 32.4448 215.835 32.4448C214.459 32.4448 213.327 32.8019 212.439 33.5159C211.551 34.23 210.893 35.1661 210.467 36.3242C210.04 37.4824 209.827 38.7319 209.827 40.073C209.827 41.414 210.04 42.6592 210.467 43.8087C210.893 44.9581 211.551 45.8855 212.439 46.5908C213.327 47.2962 214.459 47.6489 215.835 47.6489ZM239.924 50V47.6489L248.754 37.9831C249.79 36.851 250.644 35.867 251.314 35.0311C251.985 34.1864 252.481 33.394 252.803 32.6538C253.134 31.9049 253.3 31.1212 253.3 30.3027C253.3 29.3622 253.073 28.548 252.621 27.8601C252.176 27.1722 251.567 26.641 250.792 26.2666C250.017 25.8921 249.146 25.7049 248.179 25.7049C247.152 25.7049 246.255 25.9182 245.489 26.3449C244.731 26.7629 244.143 27.3507 243.725 28.1083C243.316 28.8659 243.111 29.7541 243.111 30.7729H240.029C240.029 29.2055 240.39 27.8296 241.113 26.6453C241.836 25.4611 242.82 24.538 244.065 23.8762C245.319 23.2144 246.725 22.8835 248.284 22.8835C249.851 22.8835 251.24 23.2144 252.451 23.8762C253.661 24.538 254.61 25.4306 255.298 26.5539C255.986 27.6772 256.33 28.9268 256.33 30.3027C256.33 31.2867 256.152 32.2489 255.795 33.1894C255.446 34.1211 254.837 35.1617 253.966 36.3111C253.104 37.4519 251.906 38.8451 250.374 40.4909L244.365 46.9174V47.1264H256.8V50H239.924ZM264.494 50.209C263.849 50.209 263.296 49.9782 262.835 49.5167C262.373 49.0552 262.143 48.5022 262.143 47.8579C262.143 47.2135 262.373 46.6605 262.835 46.199C263.296 45.7375 263.849 45.5067 264.494 45.5067C265.138 45.5067 265.691 45.7375 266.153 46.199C266.614 46.6605 266.845 47.2135 266.845 47.8579C266.845 48.2845 266.736 48.6764 266.518 49.0334C266.309 49.3904 266.026 49.6778 265.669 49.8955C265.321 50.1045 264.929 50.209 264.494 50.209ZM272.622 50L284.586 26.3319V26.1229H270.793V23.2493H287.93V26.2796L276.018 50H272.622Z" fill="#3C3C3C"/>
<g clip-path="url(#clip0_852_12607)">
<path d="M51.875 30.6664C51.8744 30.0673 51.7162 29.4788 51.4164 28.9601C51.1165 28.4413 50.6856 28.0106 50.1667 27.711L38.2083 20.8777C37.6889 20.5778 37.0998 20.4199 36.5 20.4199C35.9003 20.4199 35.3111 20.5778 34.7917 20.8777L22.8333 27.711C22.3144 28.0106 21.8835 28.4413 21.5836 28.9601C21.2838 29.4788 21.1256 30.0673 21.125 30.6664V44.3331C21.1256 44.9322 21.2838 45.5207 21.5836 46.0394C21.8835 46.5582 22.3144 46.9889 22.8333 47.2885L34.7917 54.1218C35.3111 54.4217 35.9003 54.5796 36.5 54.5796C37.0998 54.5796 37.6889 54.4217 38.2083 54.1218L50.1667 47.2885C50.6856 46.9889 51.1165 46.5582 51.4164 46.0394C51.7162 45.5207 51.8744 44.9322 51.875 44.3331V30.6664Z" stroke="#3C3C3C" stroke-width="3.41667" stroke-linecap="round" stroke-linejoin="round"/>
<path d="M21.637 28.958L36.4995 37.4997L51.362 28.958" stroke="#3C3C3C" stroke-width="3.41667" stroke-linecap="round" stroke-linejoin="round"/>
<path d="M36.5 54.5833V37.5" stroke="#3C3C3C" stroke-width="3.41667" stroke-linecap="round" stroke-linejoin="round"/>
</g>
<defs>
<clipPath id="clip0_852_12607">
<rect width="41" height="41" fill="white" transform="translate(16 17)"/>
</clipPath>
</defs>
</svg>
