<svg width="24" height="24" viewBox="0 0 24 24" fill="none" xmlns="http://www.w3.org/2000/svg">
<path fill-rule="evenodd" clip-rule="evenodd" d="M3.29289 5.29289C2.90237 5.68342 2.90237 6.31658 3.29289 6.70711L5.58579 9L3.29289 11.2929C2.90237 11.6834 2.90237 12.3166 3.29289 12.7071C3.68342 13.0976 4.31658 13.0976 4.70711 12.7071L7.70711 9.70711C7.89464 9.51957 8 9.26522 8 9C8 8.73478 7.89464 8.48043 7.70711 8.29289L4.70711 5.29289C4.31658 4.90237 3.68342 4.90237 3.29289 5.29289ZM11 5C10.4477 5 10 5.44772 10 6C10 6.55228 10.4477 7 11 7H20C20.5523 7 21 6.55228 21 6C21 5.44772 20.5523 5 20 5H11ZM11 11C10.4477 11 10 11.4477 10 12C10 12.5523 10.4477 13 11 13H20C20.5523 13 21 12.5523 21 12C21 11.4477 20.5523 11 20 11H11ZM5 17C4.44772 17 4 17.4477 4 18C4 18.5523 4.44772 19 5 19L20 19C20.5523 19 21 18.5523 21 18C21 17.4477 20.5523 17 20 17L5 17Z" fill="#929490"/>
</svg>
