<svg width="24" height="24" viewBox="0 0 24 24" fill="none" xmlns="http://www.w3.org/2000/svg">
<path fill-rule="evenodd" clip-rule="evenodd" d="M12.572 2C7.36492 2 3.14435 6.22252 3.14435 11.4305C3.14435 12.988 3.52251 14.4595 4.19245 15.7559L3.16336 18.2265C2.47669 19.8751 4.13067 21.5287 5.77906 20.8416L8.24786 19.8126C9.54384 20.4828 11.015 20.8611 12.572 20.8611C17.7791 20.8611 21.9996 16.6386 21.9996 11.4305C21.9996 6.22252 17.7791 2 12.572 2ZM5.14435 11.4305C5.14435 7.32644 8.47014 4 12.572 4C16.6738 4 19.9996 7.32644 19.9996 11.4305C19.9996 15.5346 16.6738 18.8611 12.572 18.8611C11.1993 18.8611 9.91637 18.4895 8.81495 17.842L8.38442 17.5889L7.92343 17.781L5.0096 18.9956L6.22395 16.0801L6.41585 15.6194L6.16307 15.1891C5.51581 14.0873 5.14435 12.8038 5.14435 11.4305ZM11.5297 8.152C11.2214 7.95933 10.8329 7.94913 10.5149 8.12536C10.197 8.30158 9.99967 8.63647 9.99967 9V14C9.99967 14.3635 10.197 14.6984 10.5149 14.8746C10.8329 15.0509 11.2214 15.0407 11.5297 14.848L15.5297 12.348C15.8221 12.1653 15.9997 11.8448 15.9997 11.5C15.9997 11.1552 15.8221 10.8347 15.5297 10.652L11.5297 8.152ZM13.1129 11.5L11.9997 12.1958V10.8042L13.1129 11.5Z" fill="#929490"/>
</svg>
